.
 
http://www.scenetime.com    -  Hottest private tracker on the net. !!!

New release on http://www.scenetime.com

        Seed back for speed


...................................NFO:.................................................








































          
          
              
              
                    
                    
                    
                    
Crazy.Beautiful.2001.DVDRiP.XviD.AC3-SiC

Poster:
[img]http://img51.imageshack.us/img51/2640/crzybeaut1.png[/img]

IMDB Link: 
http://www.imdb.com/title/tt0250224

Description:
Nicole is a 17-year-old daughter of a wealthy congressman who breaks all the rules. Carlos is a grade A student with big dreams who endures a two-hour bus ride every morning to attend high school When fate brings them together, it is crazy/beautiful in this sexy, fun and energetic story of first love. But will Nilole's wild life destroy Carols' dreams?

General:
Complete name                    : Crazy.Beautiful.2001.DVDRiP.XviD.AC3-SiC.avi
Format                           : AVI
Format/Info                      : Audio Video Interleave
File size                        : 1.20 GiB
Duration                         : 1h 39mn
Overall bit rate                 : 1 735 Kbps

Video
ID                               : 0
Format                           : MPEG-4 Visual
Format profile                   : Advanced Simple@L5
Format settings, BVOP            : 3
Format settings, QPel            : No
Format settings, GMC             : No warppoints
Format settings, Matrix          : Default (H.263)
Codec ID                         : XVID
Codec ID/Hint                    : XviD
Duration                         : 1h 39mn
Bit rate                         : 1 536 Kbps
Width                            : 720 pixels
Height                           : 384 pixels
Display aspect ratio             : 1.875
Frame rate                       : 23.976 fps
Color space                      : YUV
Chroma subsampling               : 4:2:0
Bit depth                        : 8 bits
Scan type                        : Progressive
Compression mode                 : Lossy
Bits/(Pixel*Frame)               : 0.232
Stream size                      : 1.06 GiB (88%)
Writing library                  : XviD 1.2.1 (UTC 2008-12-04)

Audio
ID                               : 1
Format                           : AC-3
Format/Info                      : Audio Coding 3
Mode extension                   : CM (complete main)
Codec ID                         : 2000
Duration                         : 1h 39mn
Bit rate mode                    : Constant
Bit rate                         : 192 Kbps
Channel(s)                       : 2 channels
Channel positions                : Front: L R
Sampling rate                    : 48.0 KHz
Bit depth                        : 16 bits
Compression mode                 : Lossy
Stream size                      : 136 MiB (11%)
Alignment                        : Aligned on interleaves
Interleave, duration             : 64 ms (1.53 video frames)
Interleave, preload duration     : 192 ms
Title                            : VTS_01_1 T80 3_2ch 448Kbps DELAY 0ms_new

Screenshots:
[IMG]http://img687.imageshack.us/img687/1950/vlcsnap2012011608h25m38.png[/IMG]
[IMG]http://img848.imageshack.us/img848/8139/vlcsnap2012011608h26m18.png[/IMG]
[IMG]http://img685.imageshack.us/img685/521/vlcsnap2012011608h26m28.png[/IMG]
[IMG]http://img444.imageshack.us/img444/1684/vlcsnap2012011608h27m40.png[/IMG]
[IMG]http://img208.imageshack.us/img208/6742/vlcsnap2012011608h27m48.png[/IMG]
[IMG]http://img259.imageshack.us/img259/5219/vlcsnap2012011608h26m59.png[/IMG]

Note:  :)  Audio converted to Stereo 192kbps AC3, then muxed to our encode :)  Video, gave it a bit of love ;) So here we have another great release for ya guys/gals, and yes this is a chick flick lol, but it is very worth the watch, and actually my wife and I just watched again the other day and she said " you need to do this one next " so here it is, plz enjoy.  Normal tweaks with a couple extra filters.

Source:  Ours

Enjoy!

Respects to T00NG0D, ELEKTRI4KA, PA, YeFsTe, MrRep and everyone in the struggle...